<svg width="79" height="80" viewBox="0 0 79 80" fill="none" xmlns="http://www.w3.org/2000/svg">
<g clip-path="url(#clip0)">
<path d="M21.3584 13.4678C20.7412 13.8842 20.3298 14.5088 19.9183 15.1334C31.8499 5.55601 49.7473 6.80524 61.0618 18.4647C72.3762 30.1242 73.4048 48.4462 63.5304 60.3139C64.1475 59.8975 64.7647 59.481 65.1761 58.8564C77.7249 46.3641 79.1649 26.7929 68.4676 14.0924C68.0562 13.676 67.439 13.0514 67.0276 12.635C66.6162 12.0104 65.999 11.594 65.5876 11.1775C59.8275 5.97242 52.6274 3.47396 45.2216 3.47396C36.7872 3.47396 27.9413 6.80524 21.3584 13.4678Z" fill="#F8F8F2"/>
<path d="M10.9038 10.9461C-4.18777 26.8913 -3.56209 51.4983 11.5083 67.9351C26.5788 84.3719 52.2489 84.2392 67.6607 69.2638C77.2934 59.4994 81.4735 46.2012 78.2732 33.265C78.2668 42.9796 75.0517 52.7108 67.0245 60.8478C59.6399 67.6862 50.9743 70.6454 42.6311 71.3361C34.2878 72.0269 24.6637 68.8385 18.2503 62.3953L17.9301 61.4255L24.3476 61.3923C29.1682 50.0337 31.7386 44.8393 32.7014 44.5105L40.4021 45.1183L31.728 61.0303L45.8462 61.6049C49.3815 52.8435 51.3093 48.9477 51.3093 48.9477C57.0927 37.2603 59.9855 29.7976 59.9876 26.5594C59.3471 24.6198 59.0269 23.65 59.0269 23.65C57.7459 19.7707 49.725 18.1931 36.89 18.2595L29.1893 17.6517C31.4353 17.9639 34.644 17.9473 38.1731 18.9005C43.948 20.1659 46.8344 22.4177 46.8323 25.6559C46.8323 25.6559 47.1525 26.6257 46.5099 27.9243C45.545 31.4913 45.2226 33.7597 44.58 35.0583L35.9166 34.7793L41.3797 22.1221C37.5305 20.1991 33.0386 19.5747 27.9041 20.2489C26.2966 25.1145 20.5132 36.8019 12.4796 54.6535C9.59534 49.1635 8.31649 42.0461 8.32072 35.5697C8.96754 27.7947 13.4657 18.7045 19.8875 12.1949C27.9147 4.05791 37.5431 0.76992 47.4897 1.68993C43.9607 0.736729 41.7147 0.424522 38.506 0.441121C28.5594 -0.478894 19.2513 3.7789 10.9038 10.9461Z" fill="#F8F8F2"/>
</g>
<defs>
<clipPath id="clip0">
<rect width="79" height="80" fill="white"/>
</clipPath>
</defs>
</svg>
